<svg xmlns="http://www.w3.org/2000/svg" xmlns:xlink="http://www.w3.org/1999/xlink" xmlns:svgjs="http://svgjs.com/svgjs" width="512" height="512" x="0" y="0" viewBox="0 0 512 512" style="enable-background:new 0 0 512 512" xml:space="preserve" class=""><g><path xmlns="http://www.w3.org/2000/svg" d="m153.601562 409.601562h-8.535156c-4.710937 0-8.53125 3.820313-8.53125 8.53125 0 4.714844 3.820313 8.535157 8.53125 8.535157h8.535156c4.710938 0 8.53125-3.820313 8.53125-8.535157 0-4.710937-3.820312-8.53125-8.53125-8.53125zm0 0" fill="#00ff30" data-original="#000000" style="" class=""></path><path xmlns="http://www.w3.org/2000/svg" d="m366.933594 409.601562h-8.535156c-4.710938 0-8.53125 3.820313-8.53125 8.53125 0 4.714844 3.820312 8.535157 8.53125 8.535157h8.535156c4.710937 0 8.53125-3.820313 8.53125-8.535157 0-4.710937-3.820313-8.53125-8.53125-8.53125zm0 0" fill="#00ff30" data-original="#000000" style="" class=""></path><path xmlns="http://www.w3.org/2000/svg" d="m232.960938 228.558594c.476562-.367188.914062-.734375 1.449218-1.101563 9.058594-5.136719 14.460938-14.925781 13.988282-25.328125 7.28125-3.175781 12.855468-9.320312 15.308593-16.878906 2.558594-12.636719-.648437-21.46875-8.621093-23.601562-1.117188-.292969-2.257813-.46875-3.414063-.53125-.058594-1.851563-.136719-3.796876-.269531-5.921876-1.707032-26.964843-33.179688-35.140624-51.78125-35.730468h-6.9375c-18.339844.589844-49.828125 8.765625-51.523438 35.738281-.136718 2.109375-.214844 4.054687-.273437 5.90625-1.128907.0625-2.246094.234375-3.339844.519531-7.917969 2.109375-11.277344 11.144532-8.660156 24.097656 2.578125 7.351563 8.105469 13.296876 15.25 16.402344-.480469 10.402344 4.925781 20.191406 13.984375 25.328125.53125.367188.964844.734375 1.445312 1.089844-3.144531 6.710937-6.78125 13.175781-10.882812 19.347656-17.960938 1.59375-34.878906 9.140625-48.066406 21.441407-10.882813 12.917968-16.359376 29.539062-15.285157 46.398437 0 49.765625 99.578125 51.199219 110.933594 51.199219 11.359375 0 110.933594-1.433594 110.933594-51.199219 1.078125-16.859375-4.402344-33.480469-15.289063-46.398437-13.183594-12.300782-30.101562-19.847657-48.0625-21.441407-4.105468-6.167969-7.742187-12.628906-10.886718-19.335937zm-36.695313 76.082031c-10.445313-8.578125-19.476563-18.75-26.75-30.140625 8.351563 4.132812 17.449219 6.546875 26.75 7.101562 9.300781-.5625 18.398437-2.984374 26.746094-7.125-7.273438 11.394532-16.300781 21.578126-26.746094 30.164063zm-23.890625-63.453125c4.699219 4.273438 10.894531 6.527344 17.246094 6.277344h13.308594c6.351562.242187 12.546874-2.019532 17.246093-6.296875 1.800781 3.5 3.945313 7.398437 6.828125 12.09375-9.316406 5.917969-19.800781 9.765625-30.738281 11.273437-10.929687-1.511718-21.40625-5.355468-30.71875-11.273437 2.875-4.703125 5.015625-8.601563 6.828125-12.101563zm-14.175781-84.890625c1.136719-18.058594 34.695312-19.761719 34.746093-19.761719h6.386719c.332031 0 33.875 1.578125 34.984375 19.734375 1.027344 9.113281.421875 18.339844-1.78125 27.238281-.980468 3.425782-1.507812 6.960938-1.5625 10.523438 0 1.75.101563 3.457031.210938 5.121094 1.550781 5.707031-1.191406 11.710937-6.527344 14.273437-4.609375 3.261719-8.785156 7.097657-12.421875 11.417969-3.996094 4.480469-4.941406 5.546875-9.335937 5.546875h-13.3125c-4.394532 0-5.34375-1.066406-9.335938-5.546875-3.636719-4.320312-7.8125-8.15625-12.425781-11.417969-5.332031-2.558593-8.078125-8.558593-6.527344-14.265625.109375-1.707031.214844-3.414062.214844-5.121094-.058594-3.5625-.585938-7.101562-1.5625-10.53125-2.195313-8.902343-2.789063-18.125-1.757813-27.238281zm131.933593 159.4375c0 27.816406-69.511718 34.132813-93.867187 34.132813-24.351563 0-93.867187-6.273438-93.867187-34.132813-.980469-12.503906 2.832031-24.914063 10.660156-34.714844 9.375-8.46875 21.085937-13.914062 33.605468-15.632812 3.300782 11.519531 13.429688 32.375 44.269532 57.054687.203125.160156.460937.203125.683594.347656.476562.316407.984374.578126 1.519531.785157.980469.433593 2.046875.640625 3.121093.605469.542969.011718 1.085938-.03125 1.621094-.125.519532-.109376 1.023438-.269532 1.511719-.480469.535156-.207031 1.050781-.46875 1.535156-.785157.214844-.144531.46875-.1875.675781-.347656 30.839844-24.679687 40.957032-45.535156 44.269532-57.054687 12.519531 1.726562 24.226562 7.191406 33.59375 15.675781 7.828125 9.785156 11.640625 22.179688 10.667968 34.671875zm0 0" fill="#00ff30" data-original="#000000" style="" class=""></path><path xmlns="http://www.w3.org/2000/svg" d="m332.800781 110.933594c14.136719 0 25.597657-11.460938 25.597657-25.601563 0-14.136719-11.460938-25.597656-25.597657-25.597656-14.140625 0-25.601562 11.460937-25.601562 25.597656 0 14.140625 11.460937 25.601563 25.601562 25.601563zm0-34.132813c4.710938 0 8.53125 3.820313 8.53125 8.53125 0 4.714844-3.820312 8.535157-8.53125 8.535157-4.714843 0-8.535156-3.820313-8.535156-8.535157 0-4.710937 3.820313-8.53125 8.535156-8.53125zm0 0" fill="#00ff30" data-original="#000000" style="" class=""></path><path xmlns="http://www.w3.org/2000/svg" d="m392.535156 110.933594c14.136719 0 25.597656-11.460938 25.597656-25.601563 0-14.136719-11.460937-25.597656-25.597656-25.597656-14.140625 0-25.601562 11.460937-25.601562 25.597656 0 14.140625 11.460937 25.601563 25.601562 25.601563zm0-34.132813c4.710938 0 8.53125 3.820313 8.53125 8.53125 0 4.714844-3.820312 8.535157-8.53125 8.535157-4.714844 0-8.535156-3.820313-8.535156-8.535157 0-4.710937 3.820312-8.53125 8.535156-8.53125zm0 0" fill="#00ff30" data-original="#000000" style="" class=""></path><path xmlns="http://www.w3.org/2000/svg" d="m452.265625 110.933594c14.140625 0 25.601563-11.460938 25.601563-25.601563 0-14.136719-11.460938-25.597656-25.601563-25.597656-14.136719 0-25.597656 11.460937-25.597656 25.597656 0 14.140625 11.460937 25.601563 25.597656 25.601563zm0-34.132813c4.714844 0 8.535156 3.820313 8.535156 8.53125 0 4.714844-3.820312 8.535157-8.535156 8.535157-4.710937 0-8.53125-3.820313-8.53125-8.535157 0-4.710937 3.820313-8.53125 8.53125-8.53125zm0 0" fill="#00ff30" data-original="#000000" style="" class=""></path><path xmlns="http://www.w3.org/2000/svg" d="m283.109375 51.199219h-240.441406c-14.140625 0-25.601563 11.460937-25.601563 25.601562v298.664063c-9.425781 0-17.066406 7.644531-17.066406 17.070312v34.132813c.0273438 23.550781 19.113281 42.636719 42.667969 42.664062h426.664062c23.554688-.027343 42.640625-19.113281 42.667969-42.664062v-34.132813c0-9.425781-7.640625-17.070312-17.066406-17.070312v-246.40625c10.714844-12.078125 16.769531-27.582032 17.066406-43.726563 0-47.050781-53.589844-85.332031-119.464844-85.332031-48.878906 0-90.949218 21.101562-109.425781 51.199219zm-10.5625 128.367187c2.378906 3.34375 6.230469 5.332032 10.332031 5.332032 1.152344 0 2.300782-.15625 3.414063-.457032l67.414062-18.347656c12.710938 3.070312 25.746094 4.605469 38.828125 4.574219 17.40625.039062 34.703125-2.785157 51.199219-8.355469v213.152344h-375.46875v-273.066406h207.214844c3.398437 11.59375 9.605469 22.167968 18.066406 30.789062l-21.222656 31.796875c-3 4.421875-2.914063 10.253906.222656 14.582031zm54.980469 212.96875-6.179688 12.347656c-1.445312 2.890626-4.398437 4.714844-7.628906 4.71875h-115.4375c-3.230469-.003906-6.183594-1.828124-7.628906-4.71875l-6.179688-12.347656zm-293.394532-315.734375c0-4.714843 3.820313-8.535156 8.535157-8.535156h232.804687c-1.589844 5.550781-2.402344 11.292969-2.40625 17.066406h-204.800781c-9.425781 0-17.066406 7.640625-17.066406 17.066407v273.066406h-17.066407zm435.199219 375.464844h-426.664062c-14.140625 0-25.601563-11.460937-25.601563-25.597656h93.867188c4.710937 0 8.53125-3.820313 8.53125-8.535157 0-4.710937-3.820313-8.53125-8.53125-8.53125h-93.867188v-17.066406h148.328125l9.992188 19.984375c4.308593 8.695313 13.1875 14.179688 22.894531 14.148438h115.4375c9.707031.03125 18.585938-5.453125 22.894531-14.148438l9.992188-19.984375h148.328125v17.066406h-93.867188c-4.710937 0-8.53125 3.820313-8.53125 8.53125 0 4.714844 3.820313 8.535157 8.53125 8.535157h93.867188c0 14.136719-11.460938 25.597656-25.601563 25.597656zm-8.53125-76.800781v-220.15625c5.96875-2.957032 11.675781-6.414063 17.066407-10.328125v230.484375zm-68.265625-358.398438c56.464844 0 102.398438 30.625 102.398438 68.265625-.304688 12.964844-5.441406 25.347657-14.394532 34.722657-.128906.128906-.242187.265624-.367187.410156-8.640625 9.238281-19.101563 16.589844-30.722656 21.589844-.289063.109374-.554688.214843-.851563.339843-17.722656 7.539063-36.804687 11.355469-56.0625 11.207031-12.082031.035157-24.121094-1.421874-35.84375-4.34375-2.097656-.53125-4.292968-.503906-6.382812.066407l-57.53125 15.652343 16.855468-25.25c3.410157-5.148437 2.660157-11.996093-1.785156-16.285156-10.890625-9.726562-17.296875-23.511718-17.714844-38.109375.066407-7.71875 2-15.3125 5.632813-22.125 0-.078125.078125-.128906.109375-.207031 13.886719-26.691406 51.933594-45.933594 96.660156-45.933594zm0 0" fill="#00ff30" data-original="#000000" style="" class=""></path><path xmlns="http://www.w3.org/2000/svg" d="m332.800781 230.398438h85.332031c4.714844 0 8.535157-3.820313 8.535157-8.53125 0-4.714844-3.820313-8.535157-8.535157-8.535157h-85.332031c-4.714843 0-8.535156 3.820313-8.535156 8.535157 0 4.710937 3.820313 8.53125 8.535156 8.53125zm0 0" fill="#00ff30" data-original="#000000" style="" class=""></path><path xmlns="http://www.w3.org/2000/svg" d="m332.800781 264.535156h85.332031c4.714844 0 8.535157-3.824218 8.535157-8.535156s-3.820313-8.535156-8.535157-8.535156h-85.332031c-4.714843 0-8.535156 3.824218-8.535156 8.535156s3.820313 8.535156 8.535156 8.535156zm0 0" fill="#00ff30" data-original="#000000" style="" class=""></path><path xmlns="http://www.w3.org/2000/svg" d="m332.800781 298.667969h85.332031c4.714844 0 8.535157-3.820313 8.535157-8.535157 0-4.710937-3.820313-8.53125-8.535157-8.53125h-85.332031c-4.714843 0-8.535156 3.820313-8.535156 8.53125 0 4.714844 3.820313 8.535157 8.535156 8.535157zm0 0" fill="#00ff30" data-original="#000000" style="" class=""></path><path xmlns="http://www.w3.org/2000/svg" d="m332.800781 332.800781h85.332031c4.714844 0 8.535157-3.820312 8.535157-8.535156 0-4.710937-3.820313-8.53125-8.535157-8.53125h-85.332031c-4.714843 0-8.535156 3.820313-8.535156 8.53125 0 4.714844 3.820313 8.535156 8.535156 8.535156zm0 0" fill="#00ff30" data-original="#000000" style="" class=""></path></g></svg>