<svg xmlns="http://www.w3.org/2000/svg" xmlns:xlink="http://www.w3.org/1999/xlink" xmlns:svgjs="http://svgjs.com/svgjs" width="512" height="512" x="0" y="0" viewBox="0 0 512 512" style="enable-background:new 0 0 512 512" xml:space="preserve" class=""><g><g xmlns="http://www.w3.org/2000/svg"><path d="m248.356 50.229c0-7.31-3.817-13.79-10.212-17.332-6.396-3.544-13.914-3.343-20.11.532l-21.607 13.514c-3.461 2.164-7.444 3.308-11.521 3.308h-9.945v-12.958c0-14.298-11.628-25.93-25.92-25.93h-44.16c-23.089 0-42.306 16.846-46.034 38.89h-14.457c-24.477 0-44.39 19.909-44.39 44.38v18.09c0 4.142 3.357 7.5 7.5 7.5s7.5-3.358 7.5-7.5v-18.09c0-16.2 13.185-29.38 29.39-29.38h13.79v68.94c-12.514 3.71-21.671 15.307-21.671 29.008v40.266c0 16.684 13.573 30.256 30.257 30.256h11.754v20.433h-13.273c-27.706 0-50.247-22.541-50.247-50.247v-56.717c0-4.142-3.357-7.5-7.5-7.5s-7.5 3.358-7.5 7.5v56.717c0 35.977 29.269 65.247 65.247 65.247h13.272v54.044h-23.814c-19.159 0-34.747 15.587-34.747 34.747v135.19c0 4.142 3.357 7.5 7.5 7.5s7.5-3.358 7.5-7.5v-43.698h60.012v43.698c0 4.142 3.357 7.5 7.5 7.5s7.5-3.358 7.5-7.5v-135.19c0-7.331-2.288-14.134-6.178-19.746h45.177c20.956 0 38.006 17.049 38.006 38.005v116.931c0 4.142 3.357 7.5 7.5 7.5s7.5-3.358 7.5-7.5v-116.931c0-29.227-23.778-53.005-53.006-53.005h-6.319v-54.038h40.79c19.295 0 34.992-15.701 34.992-35v-110.11h4.188c14.19 0 25.735-11.546 25.735-25.739v-48.085zm-143.476-23.866h44.16c6.021 0 10.92 4.903 10.92 10.93v12.958h-43.24c-11.971 0-21.71 9.74-21.71 21.712v60.982h-21.83v-74.883c0-17.479 14.22-31.699 31.7-31.699zm-53.371 177.104v-40.266c0-8.413 6.844-15.256 15.257-15.256h34.662c8.413 0 15.257 6.844 15.257 15.256v40.266c0 8.413-6.844 15.256-15.257 15.256h-34.663c-8.413 0-15.256-6.843-15.256-15.256zm-16.551 230.972v-76.492c0-10.889 8.858-19.747 19.747-19.747h20.519c10.889 0 19.747 8.858 19.747 19.747v76.492zm168.474-200.277c0 11.028-8.969 20-19.992 20h-28.5c-.032 0-.064-.005-.097-.005h-38.27c-4.143 0-7.5 3.358-7.5 7.5s3.357 7.5 7.5 7.5h11.077v54.043h-34.131v-61.389c.001-.052.008-.103.008-.155s-.007-.103-.008-.155v-27.778h7.908c16.684 0 30.257-13.573 30.257-30.256v-37.106c9.782-8.053 15.87-19.939 16.477-32.566.154-3.264-.039-6.525-.579-9.744h55.85zm29.924-135.849c0 5.921-4.815 10.739-10.735 10.739h-77.111c-4.062 0-7.847 1.816-10.387 4.984-2.523 3.148-3.47 7.208-2.603 11.097.563 2.593.784 5.27.658 7.949-.267 5.564-2.152 10.918-5.29 15.467-3.814-6.86-10.216-12.087-17.879-14.358v-62.228c0-3.701 3.01-6.712 6.71-6.712h50.701c.013 0 .026.002.039.002s.026-.002.039-.002h17.407c6.894 0 13.628-1.933 19.475-5.59l21.607-13.514c2.172-1.357 4.141-.543 4.888-.129.746.414 2.481 1.651 2.481 4.212z" fill="#00ff30" data-original="#000000" style="" class=""></path><path d="m508.249 147.567-61.628-35.583c.577-4.148-.188-8.424-2.301-12.251-3.38-6.124-9.571-9.939-16.56-10.207l-38.768-1.489c-7.381-.276-14.212 3.503-17.893 9.878s-3.53 14.205.393 20.434l9.426 14.97c-.357.874-.557 1.829-.557 2.832v65.87c-5.342 1.469-10.057 4.464-13.643 8.49l-38.146-13.885c-.02-.007-.038-.017-.058-.024s-.04-.011-.059-.018l-49.02-17.842c-3.72-1.361-7.747-1.188-11.34.486-3.597 1.675-6.323 4.65-7.675 8.373l-15.977 43.904c-1.361 3.728-1.187 7.759.488 11.35 1.676 3.59 4.652 6.312 8.371 7.659l49.05 17.858c.012.004.022.01.034.014.013.005.027.008.04.013l50.746 18.475c.847.309 1.713.455 2.564.455 3.063 0 5.939-1.891 7.049-4.936 1.417-3.892-.59-8.196-4.482-9.613l-43.738-15.924 15.864-43.587 29.612 10.779c-.324 1.712-.501 3.476-.501 5.281 0 15.616 12.704 28.32 28.32 28.32 10.594 0 19.842-5.851 24.699-14.488l24.221 8.815-15.87 43.584-30.487-11.091c-3.896-1.415-8.197.593-9.612 4.484-1.416 3.893.591 8.196 4.483 9.612l30.643 11.147c1.66.605 3.381.907 5.096.907 2.135 0 4.263-.468 6.254-1.397 3.59-1.675 6.312-4.652 7.658-8.37l15.992-43.916c1.351-3.719 1.173-7.743-.5-11.331-1.675-3.593-4.647-6.316-8.364-7.666l-25.913-9.431c-.363-12.658-9.066-23.258-20.799-26.484v-46.946c3.616 3.415 8.403 5.346 13.532 5.346.13 0 .262-.001.393-.004 4.369-.084 8.454-1.558 11.757-4.13l61.636 35.582c1.182.682 2.471 1.006 3.743 1.006 2.592 0 5.113-1.346 6.502-3.751 2.071-3.587.842-8.174-2.745-10.245l-60.381-34.858 10.577-18.321 60.374 34.859c1.181.682 2.471 1.006 3.743 1.006 2.592 0 5.112-1.345 6.502-3.751 2.071-3.592.842-8.179-2.745-10.25zm-207.778 104.152-41.874-15.245 15.86-43.584 41.878 15.243zm100.711-22.396c0 7.345-5.976 13.32-13.32 13.32-7.345 0-13.32-5.976-13.32-13.32s5.976-13.32 13.32-13.32c7.344.001 13.32 5.976 13.32 13.32zm7.816-83.905c-.826.007-2.841-.171-4.14-2.234l-20.674-32.83c-1.388-2.204-.528-4.189-.095-4.94.422-.73 1.652-2.393 4.112-2.393.07 0 .142.001.214.004l38.769 1.489c2.435.093 3.61 1.757 4.003 2.468s1.174 2.593-.045 4.704l-18.047 31.259c-.013.023-.03.043-.043.066-.007.011-.011.023-.018.035-1.218 2.092-3.226 2.357-4.036 2.372z" fill="#00ff30" data-original="#000000" style="" class=""></path></g></g></svg>